# xmcd
#
# Track frame offsets:
#	150
#	17982
#	34517
#	47500
#	66677
#	82552
#	98377
#	115985
#	130902
#	143465
#	161702
#	176332
#	189435
#	210212
#
# Disc length: 3193 seconds
#
# Revision: 1
# Processed by: cddbd v1.5.1PL0 Copyright (c) Steve Scherf et al.
# Submitted via: CDex 1.50Beta5
#
DISCID=a80c770e
DTITLE=宮崎 幸夫 - ピアソラ
DYEAR=1900
DGENRE=Latin
TTITLE0=アデキオス・ノニーノ
TTITLE1=リベルタンゴ
TTITLE2=デカリシモ
TTITLE3=ピカソ
TTITLE4=ノエストロ ティエンボ
TTITLE5=オブリヴィオン
TTITLE6=チャオ パリ
TTITLE7=アメリタンゴ
TTITLE8=ロサ・リオ
TTITLE9=イヤーズ・オブ・ソリテュード
TTITLE10=エスクアロ
TTITLE11=フラカナパ
TTITLE12=タンゴ・デル・アンジェル
TTITLE13=メディタンゴ
EXTD=
EXTT0=
EXTT1=
EXTT2=
EXTT3=
EXTT4=
EXTT5=
EXTT6=
EXTT7=
EXTT8=
EXTT9=
EXTT10=
EXTT11=
EXTT12=
EXTT13=
PLAYORDER=
